<svg width="130" height="47" viewBox="0 0 130 47" fill="none" xmlns="http://www.w3.org/2000/svg">
<path d="M59.9332 6.40408C57.5043 6.40408 55.9649 7.61156 55.5543 10.2335H63.9699C63.7647 7.71505 62.4647 6.40408 59.9332 6.40408ZM60.0358 20.3073C55.1096 20.3073 51.8255 17.3404 51.8255 11.993C51.8255 6.50758 55.0412 3.26465 60.0358 3.26465C64.9278 3.26465 67.3909 6.36958 67.3909 10.82C67.3909 11.4755 67.3909 12.131 67.3225 12.9934H55.5201C55.8622 15.7189 57.4359 17.0644 60.07 17.0644C62.6358 17.0644 63.5936 15.7879 64.0726 14.1319L67.2883 15.0634C66.4673 18.1683 64.2778 20.3073 60.0358 20.3073Z" fill="#292929"/>
<path d="M77.7725 19.8933H73.5647L67.2017 3.67864H71.2043L73.3937 9.95751C74.1463 12.131 74.9673 14.4424 75.6515 16.5124H75.7199C76.4384 14.4424 77.2252 12.131 77.9778 9.95751L80.2014 3.67864H84.0671L77.7725 19.8933Z" fill="#292929"/>
<path d="M57.7438 27.3265V27.637H61.9174V30.7764H57.7438V43.8516H54.0833V30.7764H51.5176V27.637H54.0833V27.361C54.0833 24.187 55.8622 22.0136 59.6253 22.0136C60.8226 22.0136 61.5753 22.1516 62.2252 22.2896L61.9174 24.9805C61.2674 24.877 60.72 24.808 60.1042 24.808C58.4622 24.808 57.7438 25.6705 57.7438 27.3265Z" fill="#292929"/>
<path d="M67.5743 25.4635H63.5717V22.7036H67.5743V25.4635ZM67.4374 43.8516H63.7428V27.637H67.4374V43.8516Z" fill="#292929"/>
<path d="M73.7793 34.2608V43.8516H70.0847V27.637H73.7793V32.0874H73.8136C74.532 28.6375 76.5845 27.223 79.2871 27.223C83.1528 27.223 84.6239 29.7759 84.6239 33.2949V43.8516H80.9292V34.2608C80.9292 32.2944 80.0739 30.5694 77.5766 30.5694C75.2162 30.5694 73.7793 31.9494 73.7793 34.2608Z" fill="#292929"/>
<path d="M93.9361 40.9192C96.5703 40.9192 98.2124 39.1252 98.2124 35.9168V35.6408C98.2124 32.5359 96.5703 30.5349 93.9361 30.5349C91.1309 30.5349 89.7625 32.4669 89.7625 35.8133C89.7625 39.0562 91.0625 40.9192 93.9361 40.9192ZM98.2124 43.8516V39.2632H98.1439C97.4255 42.5407 95.544 44.3001 92.4309 44.3001C88.2573 44.3001 86.1021 41.0572 86.1021 35.8133C86.1021 30.4314 88.3941 27.1885 92.4309 27.223C95.6466 27.1885 97.4597 28.9479 98.1782 32.2944H98.2124V22.7036H101.907V43.8516H98.2124Z" fill="#292929"/>
<path d="M111.615 30.3624C109.186 30.3624 107.647 31.5699 107.237 34.1918H115.652C115.447 31.6734 114.147 30.3624 111.615 30.3624ZM111.718 44.2656C106.792 44.2656 103.508 41.2987 103.508 35.9513C103.508 30.4659 106.723 27.223 111.718 27.223C116.61 27.223 119.073 30.3279 119.073 34.7783C119.073 35.4338 119.073 36.0893 119.005 36.9518H107.202C107.544 39.6772 109.118 41.0227 111.752 41.0227C114.318 41.0227 115.276 39.7462 115.755 38.0903L118.97 39.0217C118.149 42.1267 115.96 44.2656 111.718 44.2656Z" fill="#292929"/>
<path d="M124.426 43.8516H120.731V27.637H124.426V32.9499H124.494C125.213 28.7409 126.65 27.637 129.078 27.637H130.002V31.8114H128.428C125.555 31.8114 124.426 32.8119 124.426 35.6408V43.8516Z" fill="#292929"/>
<path fill-rule="evenodd" clip-rule="evenodd" d="M45.8152 23.7822C45.8152 36.4848 35.6042 46.7822 23.0082 46.7822C10.4122 46.7822 0.201172 36.4848 0.201172 23.7822C0.201172 11.0797 10.4122 0.782227 23.0082 0.782227C35.6042 0.782227 45.8152 11.0797 45.8152 23.7822ZM32.0741 14.067H37.8611C39.3629 14.067 40.2177 15.7987 39.3123 17.0071L31.1523 27.8986C30.2853 29.0558 31.0301 30.7221 32.464 30.8333L34.372 30.9813C35.9666 31.105 36.6381 33.0947 35.4493 34.1737L28.4971 40.4835C26.8655 41.9644 24.5112 39.8033 25.8202 38.0262L26.9894 36.439C27.8809 35.2287 27.0243 33.5109 25.5292 33.5109H20.7109C19.2247 33.5109 18.3658 31.811 19.2392 30.5985L30.6024 14.8232C30.9447 14.3481 31.4918 14.067 32.0741 14.067ZM8.15532 33.4975H13.9423C14.5246 33.4975 15.0717 33.2163 15.414 32.7412L26.7772 16.966C27.6506 15.7534 26.7917 14.0536 25.3055 14.0536H20.4871C18.9921 14.0536 18.1355 12.3357 19.027 11.1254L20.1962 9.53822C21.5052 7.76119 19.1509 5.60003 17.5192 7.08091L10.5671 13.3908C9.37829 14.4697 10.0497 16.4594 11.6444 16.5831L13.5524 16.7312C14.9863 16.8424 15.7311 18.5087 14.8641 19.6659L6.70404 30.5574C5.79867 31.7658 6.65346 33.4975 8.15532 33.4975Z" fill="#7A2DF7"/>
</svg>
